<svg xmlns="http://www.w3.org/2000/svg" width="25" height="25" viewBox="0 0 25 25">
    <g fill="none" fill-rule="evenodd">
        <path fill="#DAE7FF" d="M12.5 5.208c2.712 0 4.911 2.246 4.911 5.016 0 3.199.768 5.316 2.23 6.958.077.088.128.197.145.314.046.323-.174.624-.491.672-2.606.388-4.871.582-6.795.582-1.924 0-4.189-.194-6.795-.582-.114-.017-.221-.069-.307-.148-.237-.22-.254-.595-.039-.838 1.462-1.642 2.23-3.759 2.23-6.958 0-2.77 2.199-5.016 4.911-5.016z"/>
        <path fill="#7F7FFF" fill-rule="nonzero" d="M12.5 5.208c-2.589 0-4.688 2.099-4.688 4.688 0 .287.234.52.521.52.288 0 .521-.233.521-.52 0-2.014 1.632-3.646 3.646-3.646.288 0 .52-.233.52-.52 0-.288-.232-.522-.52-.522z"/>
        <path fill="#00F" fill-rule="nonzero" d="M14.583 22.396c.288 0 .521.233.521.52C15.104 24.082 13.83 25 12.5 25c-1.33 0-2.604-.92-2.604-2.083 0-.288.233-.521.52-.521.288 0 .521.233.521.52 0 .502.75 1.042 1.563 1.042.814 0 1.563-.54 1.563-1.041 0-.288.233-.521.52-.521zM12.5 0c1.588 0 2.902 1.185 3.1 2.722 2.828 1.223 4.713 4.022 4.713 7.174 0 2.687.582 4.258 1.687 5.475.25.275 1.087 1.06 1.198 1.175.509.534.76 1.031.76 1.683 0 2.219-3.807 3.125-11.458 3.125S1.042 20.448 1.042 18.23c0-.652.251-1.149.76-1.683.11-.116.948-.9 1.198-1.175 1.105-1.217 1.688-2.788 1.688-5.475 0-3.152 1.884-5.951 4.713-7.174C9.598 1.185 10.912 0 12.5 0zm0 1.042c-1.138 0-2.065.913-2.083 2.05-.003.212-.136.401-.335.477-2.6.995-4.353 3.496-4.353 6.327 0 2.941-.675 4.763-1.958 6.175-.286.315-1.135 1.11-1.215 1.193-.34.358-.473.62-.473.965 0 1.254 3.485 2.084 10.417 2.084s10.417-.83 10.417-2.084c0-.345-.133-.607-.473-.965l-.046-.045c-.198-.193-.912-.865-1.169-1.148-1.283-1.412-1.958-3.234-1.958-6.175 0-2.83-1.753-5.332-4.353-6.327-.199-.076-.332-.265-.335-.478-.018-1.136-.945-2.05-2.083-2.05z"/>
    </g>
</svg>
